<svg width="20" height="20" viewBox="0 0 20 20" fill="none" xmlns="http://www.w3.org/2000/svg">
<path d="M1.00212 7.66515L8.88024 2.03793C9.74948 1.41704 10.9172 1.41704 11.7864 2.03793L19.6646 7.66515C19.6652 7.66563 19.6649 7.66667 19.6641 7.66667H17.3338C17.3334 7.66667 17.333 7.66704 17.333 7.6675V15.6667C17.333 16.7712 16.4376 17.6667 15.333 17.6667H5.33301C4.22844 17.6667 3.33301 16.7712 3.33301 15.6667V7.6675C3.33301 7.66704 3.33263 7.66667 3.33217 7.66667H1.0026C1.00179 7.66667 1.00146 7.66563 1.00212 7.66515Z" fill="#A7AAAD"/>
<path d="M8 12C8 11.4477 8.44772 11 9 11H11C11.5523 11 12 11.4477 12 12V18H8V12Z" fill="#1D2327"/>
</svg>
