<svg width="14" height="14" viewBox="0 0 14 14" fill="none" xmlns="http://www.w3.org/2000/svg">
<path d="M9.50515 11.4213L7.44276 13.4836C7.19867 13.7277 6.80297 13.7277 6.55888 13.4836L4.49649 11.4213C4.10277 11.0275 4.38162 10.3543 4.93844 10.3543H6.27078L6.27075 7.72921H3.64566V9.06154C3.64566 9.61837 2.97246 9.89722 2.57871 9.5035L0.516318 7.44111C0.27223 7.19702 0.27223 6.80129 0.516318 6.55723L2.57871 4.49484C2.97243 4.10112 3.64566 4.37997 3.64566 4.93679V6.27088H6.27075V3.64578H4.93664C4.37982 3.64578 4.10097 2.97258 4.49469 2.57883L6.55708 0.51644C6.80117 0.272352 7.19687 0.272352 7.44096 0.51644L9.50335 2.57883C9.89707 2.97255 9.61822 3.64578 9.0614 3.64578H7.72906V6.27088H10.3542V4.93854C10.3542 4.38171 11.0274 4.10286 11.4211 4.49658L13.4835 6.55897C13.7276 6.80306 13.7276 7.19879 13.4835 7.44285L11.4211 9.50524C11.0274 9.89896 10.3541 9.62011 10.3542 9.06329V7.72921H7.72908V10.3543H9.06319C9.62002 10.3543 9.89887 11.0275 9.50515 11.4213Z" fill="#76A9FF"/>
</svg>
