<svg width="12" height="10" viewBox="0 0 12 10" fill="none" xmlns="http://www.w3.org/2000/svg">
<path d="M1.95506 4.17718H1.95482H1.09823C0.844613 4.17718 0.713886 4.4683 0.863148 4.66024L0.863214 4.66033L4.2197 8.97189L4.21976 8.97197C4.457 9.27641 4.91336 9.27541 5.15121 8.97256L5.15174 8.97187L11.1357 1.2833C11.1359 1.283 11.1362 1.28271 11.1364 1.28241C11.2888 1.08882 11.1519 0.8 10.9018 0.8H10.0452C9.86328 0.8 9.69085 0.884509 9.57939 1.02923C9.57927 1.02939 9.57914 1.02956 9.57902 1.02972L4.68512 7.31571L2.42035 4.40608L2.2624 4.52877L2.42023 4.40593L2.42033 4.40606C2.36521 4.33511 2.29478 4.27751 2.21418 4.23779C2.13356 4.19806 2.04496 4.17729 1.95506 4.17718Z" fill="white" stroke="white" stroke-width="0.4"/>
</svg>
