<svg width="12" height="14" viewBox="0 0 12 14" fill="none" xmlns="http://www.w3.org/2000/svg">
<path d="M8.50008 12V13.0417C8.50008 13.3869 8.22026 13.6667 7.87508 13.6667H0.791748C0.446566 13.6667 0.166748 13.3869 0.166748 13.0417V3.45837C0.166748 3.11319 0.446566 2.83337 0.791748 2.83337H2.66675V10.5417C2.66675 11.3458 3.32094 12 4.12508 12H8.50008ZM8.50008 3.04171V0.333374H4.12508C3.7799 0.333374 3.50008 0.613192 3.50008 0.958374V10.5417C3.50008 10.8869 3.7799 11.1667 4.12508 11.1667H11.2084C11.5536 11.1667 11.8334 10.8869 11.8334 10.5417V3.66671H9.12508C8.78133 3.66671 8.50008 3.38546 8.50008 3.04171ZM11.6504 2.23366L9.93313 0.516421C9.81592 0.399218 9.65695 0.333375 9.4912 0.333374L9.33341 0.333374V2.83337H11.8334V2.67559C11.8334 2.50983 11.7676 2.35087 11.6504 2.23366V2.23366Z" fill="#76A9FF"/>
</svg>
