<svg width="20" height="20" viewBox="0 0 20 20" fill="none" xmlns="http://www.w3.org/2000/svg">
<path d="M2.5 5.59803V18.3337H13.3333V6.80746C13.3333 5.54485 13.3333 4.91355 12.9945 4.45004C12.6556 3.98652 12.0697 3.81646 10.8979 3.47634L6.73127 2.2669C4.78951 1.70328 3.81864 1.42147 3.15932 1.94053C2.5 2.45959 2.5 3.50573 2.5 5.59803Z" fill="#A7AAAD"/>
<path d="M15.1251 8.87084L13.334 8.3335V18.3335H17.5007V12.0636C17.5007 10.8689 17.5007 10.2715 17.1711 9.82866C16.8416 9.38579 16.2695 9.21414 15.1251 8.87084L15.1251 8.87084Z" fill="#A7AAAD" stroke="#1D2327" stroke-linejoin="round"/>
<path d="M6.66699 7.5L9.16699 7.5M6.66699 10.8333L9.16699 10.8333" stroke="#1D2327" stroke-width="1.2" stroke-linecap="round" stroke-linejoin="round"/>
<path d="M10.0007 18.3337V15.8337C10.0007 15.048 10.0007 14.6551 9.75657 14.4111C9.5125 14.167 9.11966 14.167 8.33398 14.167H7.50065C6.71498 14.167 6.32214 14.167 6.07806 14.4111C5.83398 14.6551 5.83398 15.048 5.83398 15.8337V18.3337" stroke="#1D2327" stroke-linejoin="round"/>
<path d="M1.66699 18.3335L18.3337 18.3335" stroke="#1D2327" stroke-width="1.2" stroke-linecap="round"/>
</svg>
