<svg width="20" height="20" viewBox="0 0 20 20" fill="none" xmlns="http://www.w3.org/2000/svg">
<path fill-rule="evenodd" clip-rule="evenodd" d="M4 13H16H16.5C16.7761 13 17 13.2239 17 13.5V15V16.5C17 16.7761 16.7761 17 16.5 17C16.2239 17 16 16.7761 16 16.5V15.5C16 15.2239 15.7761 15 15.5 15H4.5C4.22386 15 4 15.2239 4 15.5V16.5C4 16.7761 3.77614 17 3.5 17C3.22386 17 3 16.7761 3 16.5V15V13.5C3 13.2239 3.22386 13 3.5 13H4Z" fill="#9CA2A7"/>
<path fill-rule="evenodd" clip-rule="evenodd" d="M3 6C3 4.89543 3.89543 4 5 4H15C16.1046 4 17 4.89543 17 6V10H15.5V8C15.5 6.89543 14.6046 6 13.5 6H12.5C11.3954 6 10.5 6.89543 10.5 8V10H9.5V8C9.5 6.89543 8.60457 6 7.5 6H6.5C5.39543 6 4.5 6.89543 4.5 8V10H3V6Z" fill="#9CA2A7"/>
<path d="M2 13V14.5C2 14.7761 1.77614 15 1.5 15C1.22386 15 1 14.7761 1 14.5V12.6972C1 12.2426 1.13457 11.7981 1.38675 11.4199L1.80752 10.7887C2.56631 9.65053 3.77398 8.88943 5.12816 8.69598L8.72721 8.18183C9.57145 8.06122 10.4285 8.06122 11.2728 8.18183L14.8718 8.69598C16.226 8.88943 17.4337 9.65053 18.1925 10.7887L18.6132 11.4199C18.8654 11.7981 19 12.2426 19 12.6972V14.5C19 14.7761 18.7761 15 18.5 15C18.2239 15 18 14.7763 18 14.5001V13C18 12.2 17.3333 12 17 12H3C2.2 12 2 12.6667 2 13Z" fill="#9CA2A7"/>
</svg>
