<svg width="20" height="20" viewBox="0 0 20 20" fill="none" xmlns="http://www.w3.org/2000/svg">
<g clip-path="url(#clip0_976_2761)">
<path d="M18 6.46617C18 6.95489 17.5926 7.36842 17.1111 7.36842C16.7407 7.36842 16.3704 7.10526 16.2593 6.76692V6.72932C16.1111 6.2782 15.8889 5.82707 15.6667 5.41353C14.7407 3.90977 13.4815 2.85714 11.8519 2.25564C11.3704 2.06767 10.8889 1.95489 10.4074 1.8797C10.037 1.84211 9.66667 1.80451 9.2963 1.80451C9.03704 1.80451 8.74074 1.84211 8.48148 1.8797C8 1.95489 7.51852 2.06767 7.07407 2.21804C6.18519 2.5188 5.37037 3.00752 4.66667 3.60902C3.96296 4.21053 3.40741 4.92481 2.96296 5.78947C2.59259 6.46617 2.33333 7.21805 2.22222 7.96992C2.11111 8.49624 2.07407 9.02256 2.11111 9.54887C2.11111 9.96241 2.14815 10.3383 2.22222 10.7519C2.33333 11.4286 2.51852 12.0301 2.77778 12.6692C3.22222 13.6466 3.81481 14.5489 4.55556 15.3008C5.33333 16.0902 6.25926 16.6917 7.25926 17.1053C7.7037 17.2932 8.18518 17.4436 8.7037 17.5564C8.7037 17.5564 8.74074 17.5564 8.77778 17.5564C8.74074 17.406 8.7037 17.2932 8.62963 17.1429C8.59259 16.9925 8.55556 16.8797 8.48148 16.7669C8.51852 16.7293 8.55556 16.7669 8.59259 16.7293C8.66667 16.6917 8.7037 16.7293 8.77778 16.8045C8.92593 16.9925 9.07407 17.1805 9.22222 17.3684C9.25926 17.406 9.2963 17.4436 9.37037 17.4436C9.59259 17.406 9.81482 17.3684 10.037 17.3308C10.0741 17.3308 10.0741 17.3308 10.1111 17.3308C10.0741 17.218 10.0741 17.1429 10.0741 17.0301C10 16.5789 9.92593 16.1278 9.85185 15.7143C9.85185 15.6391 9.81481 15.5639 9.81481 15.4887C9.81481 15.4511 9.77778 15.3759 9.74074 15.3759C9.7037 15.3383 9.7037 15.3383 9.66667 15.3008C9.74074 15.3008 9.81481 15.3383 9.88889 15.3759C9.92593 15.3759 9.92593 15.4135 9.92593 15.4511C10.2963 16.015 10.6667 16.5789 11.0741 17.1429C11.1111 17.218 11.1852 17.2932 11.2222 17.3684C11.2593 17.4436 11.2963 17.4436 11.3704 17.4436C11.5185 17.4436 11.6296 17.4436 11.7778 17.4436C12 17.4436 12.2222 17.4436 12.4074 17.5188C12.4815 17.5564 12.5556 17.5564 12.6296 17.594C12.6667 17.594 12.7037 17.6316 12.7407 17.6692C12.7037 17.7068 12.6667 17.7444 12.6296 17.7444C12.5185 17.8195 12.4074 17.8195 12.2963 17.8571C12 17.8947 11.7037 17.8947 11.3704 17.8947C11.1852 17.8947 11.2222 17.8571 11.1481 18.0075C10.7407 18.6466 10.2963 19.2857 9.88889 19.8872C9.85185 19.9248 9.81481 19.9624 9.74074 19.9624C9.7037 19.9624 9.62963 20 9.55555 20C9.59259 19.9624 9.62963 19.9248 9.62963 19.9248C9.66667 19.8872 9.66667 19.8496 9.7037 19.812C9.77778 19.4737 9.81481 19.0977 9.88889 18.7594C9.92593 18.4962 9.96296 18.2331 10 17.9699V17.9323C9.96296 17.9323 9.88889 17.8947 9.85185 17.8947C9.66667 17.8571 9.44444 17.8195 9.25926 17.8195C9.22222 17.8195 9.18518 17.8195 9.14815 17.8571C9 18.0451 8.81482 18.2707 8.66667 18.4586C8.62963 18.4962 8.59259 18.5338 8.51852 18.5338C8.48148 18.5338 8.44444 18.5338 8.40741 18.5338C8.40741 18.4962 8.40741 18.4962 8.40741 18.4586C8.48148 18.2331 8.55555 18.0075 8.62963 17.782C8.62963 17.7444 8.66667 17.7068 8.66667 17.6692C8.59259 17.6692 8.51852 17.6316 8.44444 17.6316C7.40741 17.4812 6.44444 17.1805 5.51852 16.6541C3.40741 15.4887 1.85185 13.4962 1.25926 11.1278C1.14815 10.6767 1.07407 10.2632 1.03704 9.77444C1.03704 9.58647 1 9.3985 1 9.21053C1 9.17293 1 9.13534 1 9.09774V8.7218C1 8.68421 1 8.64662 1 8.60902C1 8.49624 1 8.34586 1.03704 8.23308C1.07407 7.70677 1.14815 7.29323 1.22222 6.8797C1.55556 5.41353 2.22222 4.09774 3.18518 2.96992C4.37037 1.61654 5.81482 0.714286 7.55556 0.263158C7.96296 0.150376 8.37037 0.0751879 8.77778 0.0375939C8.96296 -3.64126e-08 9.14815 0 9.33333 0C9.37037 0 9.40741 0 9.48148 0H9.85185C9.88889 0 9.92593 0 9.96296 0C10.2593 0 10.5556 0.0375939 10.8519 0.0751879C11.3333 0.18797 11.7407 0.263158 12.1852 0.413534C14.8519 1.2406 16.963 3.30827 17.8889 5.97744C17.9259 6.05263 17.9259 6.12782 17.963 6.20301C17.963 6.2782 18 6.35338 18 6.46617Z" fill="#9CA2A7"/>
<path d="M10.1906 8.88733C10.1906 9.54073 10.1906 10.1597 10.1906 10.8131C10.1906 11.0195 10.225 11.2258 10.2594 11.4665C10.2594 11.5353 10.2938 11.6041 10.3282 11.6729C10.397 11.948 10.5345 12.2231 10.7065 12.4638C10.7409 12.5326 10.8096 12.6014 10.844 12.6358C11.0848 12.9109 11.287 13.1387 11.6309 13.2762C11.6309 13.5728 11.6309 14.3209 11.6309 14.3209V15.0559C11.1267 14.9719 10.5689 14.6991 10.0531 14.3209C9.43406 13.8738 9.02139 13.2548 8.74627 12.5326C8.60872 12.1543 8.50555 11.7417 8.47116 11.329C8.43677 11.157 8.47116 10.9851 8.47116 10.7787C8.47116 9.64389 8.47116 8.54343 8.47116 7.40858V7.30541C8.19604 7.30541 7.92093 7.30541 7.64581 7.30541H5.99512V5.58594H12.6667C12.6667 5.65472 12.6667 7.23663 12.6667 7.30541H10.1906C10.1906 7.3398 10.1906 7.37419 10.1906 7.40858V8.88733Z" fill="#9CA2A7"/>
<path d="M16.833 14.8214V15.625M16.833 14.8214C16.11 14.8214 15.473 14.4663 15.0995 13.9271M16.833 14.8214C17.556 14.8214 18.193 14.4663 18.5666 13.9271M16.833 10.8036C17.556 10.8036 18.1931 11.1588 18.5666 11.698M16.833 10.8036C16.11 10.8036 15.473 11.1588 15.0994 11.698M16.833 10.8036V10M19.333 11.2054L18.5666 11.698M14.3333 14.4196L15.0995 13.9271M14.333 11.2054L15.0994 11.698M19.3327 14.4196L18.5666 13.9271M18.5666 11.698C18.7875 12.0169 18.9163 12.4002 18.9163 12.8125C18.9163 13.2248 18.7875 13.6081 18.5666 13.9271M15.0994 11.698C14.8785 12.0169 14.7497 12.4002 14.7497 12.8125C14.7497 13.2248 14.8785 13.6081 15.0995 13.9271" stroke="#9CA2A7" stroke-linecap="round"/>
</g>
<defs>
<clipPath id="clip0_976_2761">
<rect width="20" height="20" fill="white"/>
</clipPath>
</defs>
</svg>
