<svg width="20" height="20" viewBox="0 0 20 20" fill="none" xmlns="http://www.w3.org/2000/svg">
<g clip-path="url(#clip0_976_2907)">
<path d="M8.33366 18.4015H11.667C14.8097 18.4015 16.381 18.4015 17.3573 17.5336C18.3337 16.6656 18.3337 15.2687 18.3337 12.4748C18.3337 9.68098 18.3337 8.28405 17.3573 7.41611C16.966 7.06821 16.4791 6.85976 15.8337 6.73486H4.16699C3.52158 6.85976 3.03464 7.06821 2.6433 7.41611C1.66699 8.28405 1.66699 9.68098 1.66699 12.4748C1.66699 15.2687 1.66699 16.6656 2.6433 17.5336C3.61961 18.4015 5.19096 18.4015 8.33366 18.4015Z" fill="#A7AAAD"/>
<path d="M15.4173 12.5684L13.7507 12.5684M10.834 12.5684L9.16732 12.5684M6.25065 12.5684L4.58398 12.5684" stroke="#1D2327" stroke-width="1.5" stroke-linecap="round" stroke-linejoin="round"/>
<path d="M14 3.85058C14 6.525 11.0435 8.466 10.214 8.94235C10.0802 9.01922 9.9198 9.01922 9.78596 8.94235C8.95653 8.466 6 6.525 6 3.85058C6 1.8 7.79086 0 10 0C12.2091 0 14 1.8 14 3.85058Z" fill="#A7AAAD" stroke="#1D2327" stroke-width="1.5"/>
<path d="M10 4H10.0075" stroke="#1D2327" stroke-width="2" stroke-linecap="round" stroke-linejoin="round"/>
</g>
<defs>
<clipPath id="clip0_976_2907">
<rect width="20" height="20" fill="white"/>
</clipPath>
</defs>
</svg>
