<svg width="12" height="14" viewBox="0 0 12 14" fill="none" xmlns="http://www.w3.org/2000/svg">
<path d="M1.00008 12.4167C1.00008 12.7482 1.13178 13.0662 1.3662 13.3006C1.60062 13.535 1.91856 13.6667 2.25008 13.6667H9.75008C10.0816 13.6667 10.3995 13.535 10.634 13.3006C10.8684 13.0662 11.0001 12.7482 11.0001 12.4167V3.66671H1.00008V12.4167ZM8.08341 5.75004C8.08341 5.63954 8.12731 5.53356 8.20545 5.45542C8.28359 5.37728 8.38957 5.33338 8.50008 5.33338C8.61059 5.33338 8.71657 5.37728 8.79471 5.45542C8.87285 5.53356 8.91674 5.63954 8.91674 5.75004V11.5834C8.91674 11.6939 8.87285 11.7999 8.79471 11.878C8.71657 11.9561 8.61059 12 8.50008 12C8.38957 12 8.28359 11.9561 8.20545 11.878C8.12731 11.7999 8.08341 11.6939 8.08341 11.5834V5.75004ZM5.58341 5.75004C5.58341 5.63954 5.62731 5.53356 5.70545 5.45542C5.78359 5.37728 5.88957 5.33338 6.00008 5.33338C6.11059 5.33338 6.21657 5.37728 6.29471 5.45542C6.37285 5.53356 6.41675 5.63954 6.41675 5.75004V11.5834C6.41675 11.6939 6.37285 11.7999 6.29471 11.878C6.21657 11.9561 6.11059 12 6.00008 12C5.88957 12 5.78359 11.9561 5.70545 11.878C5.62731 11.7999 5.58341 11.6939 5.58341 11.5834V5.75004ZM3.08341 5.75004C3.08341 5.63954 3.12731 5.53356 3.20545 5.45542C3.28359 5.37728 3.38957 5.33338 3.50008 5.33338C3.61059 5.33338 3.71657 5.37728 3.79471 5.45542C3.87285 5.53356 3.91675 5.63954 3.91675 5.75004V11.5834C3.91675 11.6939 3.87285 11.7999 3.79471 11.878C3.71657 11.9561 3.61059 12 3.50008 12C3.38957 12 3.28359 11.9561 3.20545 11.878C3.12731 11.7999 3.08341 11.6939 3.08341 11.5834V5.75004ZM11.4167 1.16671H8.29174L8.04695 0.679733C7.9951 0.575622 7.91522 0.488046 7.81631 0.426857C7.71739 0.365669 7.60337 0.333295 7.48706 0.333379H4.5105C4.39445 0.332932 4.28062 0.365185 4.18206 0.426442C4.0835 0.487699 4.00418 0.575481 3.9532 0.679733L3.70841 1.16671H0.583415C0.472908 1.16671 0.366927 1.21061 0.288787 1.28875C0.210647 1.36689 0.166748 1.47287 0.166748 1.58338L0.166748 2.41671C0.166748 2.52722 0.210647 2.6332 0.288787 2.71134C0.366927 2.78948 0.472908 2.83338 0.583415 2.83338H11.4167C11.5273 2.83338 11.6332 2.78948 11.7114 2.71134C11.7895 2.6332 11.8334 2.52722 11.8334 2.41671V1.58338C11.8334 1.47287 11.7895 1.36689 11.7114 1.28875C11.6332 1.21061 11.5273 1.16671 11.4167 1.16671V1.16671Z" fill="#F8877F"/>
</svg>
