<svg xmlns="http://www.w3.org/2000/svg" viewBox="0 0 100 100" fill="none" xmlns:v="https://vecta.io/nano"><path fill="#f2f2f2" d="M0 0h100v100H0z"/><path d="M30.838 25.047V35h-1.319v-9.953h1.319zm3.666 4.026V35h-1.272v-7.396h1.203l.068 1.47zm-.26 1.948l-.588-.02a5.05 5.05 0 0 1 .198-1.401c.128-.433.317-.809.567-1.128a2.52 2.52 0 0 1 .936-.738c.374-.178.807-.267 1.299-.267.346 0 .665.05.957.15a1.93 1.93 0 0 1 .759.458c.214.21.38.479.499.807s.178.725.178 1.19V35h-1.265v-4.867c0-.387-.066-.697-.198-.93s-.31-.401-.547-.506-.515-.164-.834-.164c-.374 0-.686.066-.937.198s-.451.314-.602.547-.26.499-.328.8-.096.611-.096.943zm4.792-.697l-.848.26a3.72 3.72 0 0 1 .198-1.169c.132-.374.321-.706.567-.998s.558-.522.923-.69.781-.26 1.251-.26c.397 0 .747.052 1.053.157s.57.267.779.485.376.49.485.827.164.738.164 1.203V35h-1.272v-4.874c0-.415-.066-.736-.198-.964s-.31-.394-.547-.485-.51-.144-.834-.144c-.278 0-.524.048-.738.144s-.394.228-.54.396a1.73 1.73 0 0 0-.335.567c-.073.214-.109.442-.109.684zm11.049 3.411v-3.808c0-.292-.059-.545-.178-.759s-.287-.387-.519-.506-.52-.178-.861-.178a2.02 2.02 0 0 0-.841.164c-.237.109-.424.253-.561.431s-.198.369-.198.574h-1.265c0-.264.068-.526.205-.786a2.3 2.3 0 0 1 .588-.704c.26-.214.57-.383.93-.506s.77-.191 1.217-.191c.538 0 1.012.091 1.422.273a2.13 2.13 0 0 1 .971.827c.237.365.356.823.356 1.374v3.445a5.4 5.4 0 0 0 .061.786c.046.278.112.517.198.718V35H50.29a2.36 2.36 0 0 1-.15-.581 4.68 4.68 0 0 1-.055-.684zm.219-3.22l.014.889h-1.278c-.36 0-.681.03-.964.089s-.52.139-.711.253a1.2 1.2 0 0 0-.437.431 1.14 1.14 0 0 0-.15.595 1.3 1.3 0 0 0 .157.636c.105.191.262.344.472.458s.476.164.786.164c.387 0 .729-.082 1.025-.246s.531-.365.704-.602.273-.467.287-.69l.54.608c-.032.191-.119.403-.26.636a3.04 3.04 0 0 1-.567.67 3.06 3.06 0 0 1-.834.526c-.319.137-.679.205-1.08.205-.501 0-.941-.098-1.319-.294s-.665-.458-.875-.786a2.08 2.08 0 0 1-.308-1.114c0-.396.078-.745.232-1.046a2.02 2.02 0 0 1 .67-.759c.292-.205.643-.36 1.053-.465s.868-.157 1.374-.157h1.47zm8.027-2.912h1.148v7.239c0 .652-.132 1.208-.397 1.668a2.58 2.58 0 0 1-1.107 1.046c-.469.242-1.012.362-1.627.362-.255 0-.556-.041-.902-.123a3.64 3.64 0 0 1-1.012-.403 2.53 2.53 0 0 1-.827-.759l.663-.752c.31.374.633.634.971.779s.679.219 1.012.219c.401 0 .747-.075 1.039-.226s.517-.374.677-.67.246-.652.246-1.08v-5.674l.116-1.627zm-5.093 3.78v-.144c0-.565.066-1.078.198-1.538s.33-.864.581-1.196a2.61 2.61 0 0 1 .923-.766c.36-.182.766-.273 1.217-.273.465 0 .87.082 1.217.246a2.34 2.34 0 0 1 .889.704c.246.305.44.674.581 1.107s.239.923.294 1.47v.629a6.44 6.44 0 0 1-.294 1.463c-.141.433-.335.802-.581 1.107s-.538.54-.889.704-.761.239-1.23.239c-.442 0-.843-.093-1.203-.28a2.74 2.74 0 0 1-.916-.786c-.255-.337-.451-.734-.588-1.189a5.41 5.41 0 0 1-.198-1.497zm1.265-.144v.144a4.72 4.72 0 0 0 .109 1.039c.078.324.194.608.349.854s.362.44.608.581.54.205.882.205c.419 0 .766-.089 1.039-.267a1.93 1.93 0 0 0 .649-.704 4.07 4.07 0 0 0 .383-.95v-1.648c-.05-.251-.128-.492-.232-.725s-.232-.447-.396-.629-.358-.335-.595-.444-.515-.164-.834-.164c-.346 0-.645.073-.895.219s-.449.337-.608.588a2.82 2.82 0 0 0-.349.861 4.72 4.72 0 0 0-.109 1.039zm10.167 3.896a3.64 3.64 0 0 1-1.401-.26 3.18 3.18 0 0 1-1.073-.745c-.296-.319-.524-.697-.684-1.135s-.239-.916-.239-1.436v-.287c0-.602.089-1.137.267-1.606s.419-.875.725-1.203.652-.576 1.039-.745.788-.253 1.203-.253c.529 0 .984.091 1.367.273s.704.438.95.766.428.706.547 1.148a5.48 5.48 0 0 1 .178 1.436v.567h-5.523v-1.032h4.259v-.096c-.018-.328-.087-.647-.205-.957a1.72 1.72 0 0 0-.547-.766c-.251-.2-.593-.301-1.025-.301a1.72 1.72 0 0 0-.793.184 1.69 1.69 0 0 0-.622.533c-.173.237-.308.526-.403.868a4.4 4.4 0 0 0-.144 1.183v.287a3.34 3.34 0 0 0 .144.991c.1.305.244.574.431.807s.421.415.69.547.583.198.93.198c.447 0 .825-.091 1.135-.273a2.81 2.81 0 0 0 .813-.731l.766.608c-.16.242-.362.472-.608.69s-.549.396-.909.533-.777.205-1.265.205zm-17.337 9.91V55h-1.326l-5.011-7.677V55h-1.319v-9.953h1.319l5.031 7.697v-7.697h1.306zm2.012 6.337v-.157a4.58 4.58 0 0 1 .232-1.483c.155-.46.378-.859.67-1.196a2.99 2.99 0 0 1 1.06-.793c.415-.191.88-.287 1.395-.287s.987.096 1.401.287.775.451 1.066.793.522.736.677 1.196a4.58 4.58 0 0 1 .232 1.483v.157a4.58 4.58 0 0 1-.232 1.483 3.55 3.55 0 0 1-.677 1.196 3.1 3.1 0 0 1-1.06.793c-.41.187-.875.28-1.395.28s-.987-.093-1.401-.28a3.17 3.17 0 0 1-1.066-.793c-.292-.342-.515-.741-.67-1.196a4.58 4.58 0 0 1-.232-1.483zm1.265-.157v.157c0 .369.043.718.13 1.046s.216.611.39.861a1.97 1.97 0 0 0 .663.595c.264.141.572.212.923.212s.649-.071.909-.212.483-.344.656-.595a2.75 2.75 0 0 0 .39-.861 3.89 3.89 0 0 0 .137-1.046v-.157a3.79 3.79 0 0 0-.137-1.032c-.087-.328-.219-.617-.396-.868s-.392-.456-.656-.602-.565-.219-.916-.219-.652.073-.916.219-.478.346-.656.602-.303.54-.39.868a3.98 3.98 0 0 0-.13 1.032zm10.351-3.623v.971h-3.999v-.971h3.999zm-2.645-1.798h1.265v7.362c0 .251.039.44.116.567s.178.212.301.253.255.061.397.061a2.08 2.08 0 0 0 .328-.027l.267-.055.007 1.032c-.1.032-.232.062-.396.089s-.353.048-.581.048a1.97 1.97 0 0 1-.854-.185c-.26-.123-.467-.328-.622-.615s-.225-.684-.225-1.176v-7.355zm-32.37 20.123L22.649 75h-1.347l3.794-9.953h.868l-.021.882zM28.706 75l-3.302-9.071-.02-.882h.868L30.059 75h-1.354zm-.171-3.685v1.08h-5.592v-1.08h5.592zm4.773 2.543l2.023-6.255h1.292L33.965 75h-.848l.191-1.142zm-1.688-6.255l2.085 6.289.143 1.107h-.848l-2.68-7.397h1.299zm10.673 6.132v-3.808c0-.292-.059-.545-.178-.759s-.287-.387-.52-.506-.52-.178-.861-.178a2.02 2.02 0 0 0-.841.164c-.237.109-.424.253-.561.431s-.198.369-.198.574H37.87c0-.264.068-.526.205-.786a2.3 2.3 0 0 1 .588-.704c.26-.214.57-.383.93-.506s.77-.191 1.217-.191c.538 0 1.012.091 1.422.273a2.13 2.13 0 0 1 .971.827c.237.365.355.823.355 1.374v3.445a5.39 5.39 0 0 0 .062.786c.045.278.112.517.198.718V75h-1.319a2.36 2.36 0 0 1-.15-.581 4.68 4.68 0 0 1-.055-.683zm.219-3.22l.014.889h-1.278a4.72 4.72 0 0 0-.964.089c-.282.055-.52.139-.711.253a1.2 1.2 0 0 0-.437.431 1.14 1.14 0 0 0-.15.595 1.3 1.3 0 0 0 .157.636c.105.191.262.344.472.458s.476.164.786.164c.387 0 .729-.082 1.025-.246s.531-.365.704-.602.273-.467.287-.69l.54.608c-.032.191-.118.403-.26.636a3.04 3.04 0 0 1-.567.67 3.06 3.06 0 0 1-.834.526c-.319.137-.679.205-1.08.205-.501 0-.941-.098-1.319-.294s-.665-.458-.875-.786a2.08 2.08 0 0 1-.308-1.114c0-.397.078-.745.232-1.046a2.02 2.02 0 0 1 .67-.759c.292-.205.643-.36 1.053-.465s.868-.157 1.374-.157h1.47zm4.609-2.912V75h-1.272v-7.397h1.272zm-1.367-1.962c0-.205.061-.378.185-.519s.314-.212.56-.212.426.071.554.212a.73.73 0 0 1 .198.519c0 .196-.066.365-.198.506s-.312.205-.554.205-.433-.068-.56-.205-.185-.31-.185-.506zm4.971-1.142V75h-1.272V64.5h1.272zm6.592 9.235v-3.808c0-.292-.059-.545-.178-.759s-.287-.387-.52-.506-.519-.178-.861-.178a2.02 2.02 0 0 0-.841.164c-.237.109-.424.253-.561.431s-.198.369-.198.574h-1.265c0-.264.068-.526.205-.786a2.3 2.3 0 0 1 .588-.704c.26-.214.57-.383.93-.506s.77-.191 1.217-.191c.538 0 1.012.091 1.422.273a2.13 2.13 0 0 1 .971.827c.237.365.355.823.355 1.374v3.445a5.4 5.4 0 0 0 .062.786c.046.278.112.517.198.718V75h-1.319c-.064-.146-.114-.34-.15-.581a4.68 4.68 0 0 1-.055-.683zm.219-3.22l.014.889H56.27a4.72 4.72 0 0 0-.964.089c-.282.055-.519.139-.711.253s-.337.258-.437.431a1.14 1.14 0 0 0-.15.595 1.3 1.3 0 0 0 .157.636c.105.191.262.344.472.458s.476.164.786.164a2.08 2.08 0 0 0 1.025-.246c.296-.164.531-.365.704-.602s.274-.467.287-.69l.54.608c-.032.191-.119.403-.26.636s-.33.456-.567.67a3.06 3.06 0 0 1-.834.526c-.319.137-.679.205-1.08.205-.501 0-.941-.098-1.319-.294s-.665-.458-.875-.786a2.08 2.08 0 0 1-.308-1.114c0-.397.078-.745.233-1.046s.378-.558.67-.759.643-.36 1.053-.465a5.55 5.55 0 0 1 1.374-.157h1.47zm3.228-6.016h1.271v9.064L61.925 75h-1.162V64.5zm6.269 6.74v.144c0 .538-.064 1.037-.191 1.497a3.68 3.68 0 0 1-.561 1.189 2.61 2.61 0 0 1-.902.786 2.59 2.59 0 0 1-1.224.28c-.469 0-.882-.08-1.237-.239s-.647-.399-.889-.704-.435-.674-.581-1.108-.239-.92-.294-1.463v-.629c.055-.547.153-1.037.294-1.47a3.64 3.64 0 0 1 .581-1.107 2.34 2.34 0 0 1 .889-.704c.351-.164.759-.246 1.224-.246s.877.091 1.237.273.661.433.902.766.433.731.561 1.196.191.973.191 1.538zm-1.271.144v-.144c0-.369-.034-.716-.103-1.039a2.69 2.69 0 0 0-.328-.861c-.15-.251-.349-.447-.595-.588s-.549-.219-.909-.219c-.319 0-.597.055-.834.164a1.8 1.8 0 0 0-.595.444c-.164.182-.299.392-.403.629a3.61 3.61 0 0 0-.226.725v1.648c.073.319.191.627.355.923a2.15 2.15 0 0 0 .67.718c.282.187.631.28 1.046.28.342 0 .633-.068.875-.205a1.65 1.65 0 0 0 .595-.581c.155-.246.269-.531.342-.854a4.72 4.72 0 0 0 .109-1.039zm4.445-6.884V75h-1.272V64.5h1.272zm5.3 10.637a3.64 3.64 0 0 1-1.401-.26c-.415-.178-.773-.426-1.073-.745s-.524-.697-.684-1.135-.239-.916-.239-1.436v-.287c0-.602.089-1.137.267-1.606s.419-.875.725-1.203.652-.576 1.039-.745.788-.253 1.203-.253c.529 0 .984.091 1.367.273a2.49 2.49 0 0 1 .95.766c.246.324.428.706.547 1.148a5.48 5.48 0 0 1 .178 1.435v.567H72.86v-1.032h4.259v-.096c-.018-.328-.087-.647-.205-.957a1.72 1.72 0 0 0-.547-.766c-.251-.201-.592-.301-1.025-.301-.287 0-.551.062-.793.184a1.69 1.69 0 0 0-.622.533c-.173.237-.308.526-.403.868a4.4 4.4 0 0 0-.144 1.183v.287a3.34 3.34 0 0 0 .144.991c.1.305.244.574.431.807s.422.415.69.547a2.11 2.11 0 0 0 .93.198c.447 0 .825-.091 1.135-.273a2.81 2.81 0 0 0 .813-.732l.766.608c-.16.242-.362.472-.608.69s-.549.397-.909.533-.777.205-1.265.205z" fill="#3a3a44"/></svg>