<svg xmlns="http://www.w3.org/2000/svg" width="460" height="600" viewBox="0 0 460 600" fill="none">
  <rect width="460" height="600" fill="#ffffff"/>
  <defs>
    <radialGradient id="tg" cx="50%" cy="0%" r="70%">
      <stop offset="0%" stop-color="#3b82f6" stop-opacity=".18"/>
      <stop offset="60%" stop-color="#3b82f6" stop-opacity=".06"/>
      <stop offset="100%" stop-color="#3b82f6" stop-opacity="0"/>
    </radialGradient>
    <radialGradient id="bg" cx="100%" cy="100%" r="55%">
      <stop offset="0%" stop-color="#0077F1" stop-opacity=".14"/>
      <stop offset="60%" stop-color="#0077F1" stop-opacity=".04"/>
      <stop offset="100%" stop-color="#0077F1" stop-opacity="0"/>
    </radialGradient>
  </defs>
  <rect width="460" height="600" fill="url(#tg)"/>
  <rect width="460" height="600" fill="url(#bg)"/>
  <!-- Top-right sparkles -->
  <path d="M385 40l4-12 4 12 12 4-12 4-4 12-4-12-12-4z" fill="#3b82f6" opacity=".35"/>
  <path d="M425 80l2-6 2 6 6 2-6 2-2 6-2-6-6-2z" fill="#0077F1" opacity=".25"/>
  <path d="M355 20l1.5-4.5 1.5 4.5 4.5 1.5-4.5 1.5-1.5 4.5-1.5-4.5-4.5-1.5z" fill="#1AC2FF" opacity=".2"/>
  <!-- Bottom-left sparkles -->
  <path d="M70 545l3-9 3 9 9 3-9 3-3 9-3-9-9-3z" fill="#0077F1" opacity=".3"/>
  <path d="M30 510l2-6 2 6 6 2-6 2-2 6-2-6-6-2z" fill="#3b82f6" opacity=".22"/>
  <path d="M110 570l1.5-4.5 1.5 4.5 4.5 1.5-4.5 1.5-1.5 4.5-1.5-4.5-4.5-1.5z" fill="#1AC2FF" opacity=".18"/>
  <!-- Decorative dots -->
  <circle cx="440" cy="50" r="3" fill="#3b82f6" opacity=".25"/>
  <circle cx="405" cy="110" r="2.5" fill="#1AC2FF" opacity=".2"/>
  <circle cx="345" cy="55" r="2" fill="#0077F1" opacity=".18"/>
  <circle cx="18" cy="555" r="3" fill="#3b82f6" opacity=".25"/>
  <circle cx="100" cy="530" r="2.5" fill="#1AC2FF" opacity=".2"/>
  <circle cx="50" cy="575" r="2" fill="#0077F1" opacity=".18"/>
  <!-- Soft glow blobs -->
  <circle cx="420" cy="45" r="60" fill="#3b82f6" opacity=".06"/>
  <circle cx="40" cy="555" r="50" fill="#0077F1" opacity=".06"/>
</svg>
